
Click To Enlarge 


-: Cover :-


 
http://desibbrg.org/images/87246440269857574993.jpg

-: Screens :-




    	http://desibbrg.org/images/80567091603465429863.jpg
    	http://desibbrg.org/images/40295732653388703724.jpg
    	http://desibbrg.org/images/19098604673235104512.jpg
    	http://desibbrg.org/images/15958717243119827990.jpg
    	http://desibbrg.org/images/62473919889090338079.jpg
    	http://desibbrg.org/images/35849511330975605053.jpg
    	http://desibbrg.org/images/30314364925515246199.jpg
    	http://desibbrg.org/images/42294993234060957740.jpg
    	http://desibbrg.org/images/47594397760806531418.jpg
    	http://desibbrg.org/images/71212156908930894896.jpg
    	http://desibbrg.org/images/11439453781584047328.jpg

    	http://desibbrg.org/images/78894332408282061296.jpg





-: Info :-


General

Format                           : Matroska
File size                        : 699 MiB
Duration                         : 2h 8mn
Overall bit rate                 : 759 Kbps
Encoded date                     : UTC 2012-03-22 18:03:44
Writing library                  : libebml v1.2.3 + libmatroska v1.3.0

Video
ID                               : 1
Format                           : AVC
Format/Info                      : Advanced Video Codec
Format profile                   : High@L3.0
Format settings, CABAC           : Yes
Format settings, ReFrames        : 4 frames
Muxing mode                      : Container profile=Unknown@3.0
Codec ID                         : V_MPEG4/ISO/AVC
Duration                         : 2h 8mn
Bit rate                         : 692 Kbps
Width                            : 640 pixels
Height                           : 432 pixels
Display aspect ratio             : 3:2
Frame rate                       : 23.976 fps
Color space                      : YUV
Chroma subsampling               : 4:2:0
Bit depth                        : 8 bits
Scan type                        : Progressive
Bits/(Pixel*Frame)               : 0.104
Stream size                      : 626 MiB (90%)
Title                            : Team ExDR
Writing library                  : x264 core 120 r2164 da19765

Audio
ID                               : 2
Format                           : AC-3
Format/Info                      : Audio Coding 3
Mode extension                   : CM (complete main)
Codec ID                         : A_AC3
Duration                         : 2h 8mn
Bit rate mode                    : Constant
Bit rate                         : 64.0 Kbps
Channel(s)                       : 2 channels
Channel positions                : Front: L R
Sampling rate                    : 48.0 KHz
Bit depth                        : 16 bits
Stream size                      : 58.9 MiB (8%)
Title                            : Team ExDR
Language                         : Hindi

Text
ID                               : 3
Format                           : VobSub
Codec ID                         : S_VOBSUB
Codec ID/Info                    : The same subtitle format used on DVDs
Ripper-EXD
 
http://www.imdb.com/title/tt0178192/


Directed by
Mohan Kumar	 	
 
Writing credits
(in alphabetical order)
Mohan Kumar	 	written by
Ved Rahi	 	dialogue
Ram Swarup	 	assistant dialogue

Cast (in credits order) verified as complete
	Rajendra Kumar	... 	Rohit Kumar Verma (as Rajinder Kumar)
	Sadhana	... 	Neena Bakshi
	Prem Chopra	... 	Kumar
	Rajendra Nath	... 	Whiskey (as Rajinder Nath)
	Bobby		
	Raj Mehra	... 	Bakshi (Neena's dad)
	Mumtaz Begum	... 	Rohit's mom
	Meena T.	... 	Rasilee
	Kamaldeep	... 	Manager (as Kamal Deep)
	Madhu Apte		
	June		
	Subhash		(as Subhash)
	Sarita Devi		
	Kodi S. Irani		(as Khodu Baba)
	Surendra		(as Surinder)
	Prem Kumar		
	Lamba		
	Raj Kumar		
	Shaikh		
	Uma Khosla		
	Master Rohit


Rohit, Whiskey, and Kumar (Rajendra Kumar, Rajendra Nath, and Prem Chopra respectively) are childhood friends. While travelling to his estate in the company of Whiskey, Rohit meets with beautiful Neena (Sadhana), and falls in love with her. Subsequently, he meets with her father (Raj Mehra) where they are properly introduced, and she too falls in love with him. Unknowingly, Kumar also sends his proposal for marriage to Neena, but Neena rejects it. Kumar is offended and shortly before the marriage of Neena and Rohit, molests Neena. Rohit and Kumar become enemies, have a fight and Kumar loses sight in his left eye. Feeling that she is not worthly of Rohit anymore, Neena refuses to marry Rohit. Will Rohit and Neena ever get together again? Will they continue to be haunted by Kumar? 

